<svg width="34" height="34" viewBox="0 0 34 34" fill="none" xmlns="http://www.w3.org/2000/svg">
<rect x="0.5" y="0.5" width="33" height="33" rx="16.5" stroke="white"/>
<path fill-rule="evenodd" clip-rule="evenodd" d="M28 10.892C27.2512 11.2202 26.4573 11.4342 25.645 11.527C26.4962 11.025 27.1359 10.2307 27.445 9.292C26.6377 9.76257 25.7571 10.0942 24.84 10.273C24.4536 9.8696 23.9894 9.54879 23.4755 9.32998C22.9616 9.11117 22.4086 8.99891 21.85 9C21.3156 8.99578 20.7856 9.0969 20.2903 9.29757C19.795 9.49824 19.3441 9.79454 18.9634 10.1695C18.5826 10.5445 18.2795 10.9909 18.0713 11.483C17.8631 11.9752 17.7539 12.5036 17.75 13.038C17.7493 13.3474 17.7846 13.6558 17.855 13.957C16.2296 13.8795 14.6381 13.4639 13.1823 12.7368C11.7265 12.0097 10.4383 10.987 9.4 9.734C9.03722 10.3494 8.8456 11.0506 8.845 11.765V11.765C8.84547 12.4326 9.01241 13.0896 9.33072 13.6764C9.64903 14.2633 10.1087 14.7615 10.668 15.126C10.0178 15.1068 9.38112 14.9356 8.809 14.626V14.676C8.8148 15.6148 9.14597 16.5225 9.74609 17.2444C10.3462 17.9663 11.1781 18.4578 12.1 18.635C11.7471 18.7293 11.3833 18.777 11.018 18.777C10.7584 18.7764 10.4993 18.7523 10.244 18.705C10.5133 19.512 11.0265 20.2154 11.7127 20.7182C12.399 21.221 13.2244 21.4984 14.075 21.512C12.3456 22.8404 10.1656 23.4404 8 23.184C9.88216 24.3741 12.0641 25.004 14.291 25C15.8157 25.0229 17.3297 24.7424 18.745 24.1748C20.1603 23.6071 21.4485 22.7637 22.5348 21.6935C23.6211 20.6233 24.4836 19.3478 25.0724 17.9412C25.6611 16.5345 25.9642 15.0249 25.964 13.5C25.964 13.323 25.964 13.151 25.952 12.977C26.7548 12.4116 27.4486 11.7055 28 10.893V10.892Z" fill="white"/>
</svg>
