<svg width="34" height="34" viewBox="0 0 34 34" fill="none" xmlns="http://www.w3.org/2000/svg">
<rect x="0.5" y="0.5" width="33" height="33" rx="16.5" stroke="hsl(300, 69%, 71%)"/>
<g clip-path="url(#clip0_1_55)">
<path d="M17 9.6207C19.4047 9.6207 19.6895 9.63125 20.6352 9.67344C21.5141 9.71211 21.9887 9.85977 22.3051 9.98281C22.7234 10.1445 23.0258 10.3414 23.3387 10.6543C23.6551 10.9707 23.8484 11.2695 24.0102 11.6879C24.1332 12.0043 24.2809 12.4824 24.3195 13.3578C24.3617 14.307 24.3723 14.5918 24.3723 16.993C24.3723 19.3977 24.3617 19.6824 24.3195 20.6281C24.2809 21.507 24.1332 21.9816 24.0102 22.298C23.8484 22.7164 23.6516 23.0187 23.3387 23.3316C23.0223 23.648 22.7234 23.8414 22.3051 24.0031C21.9887 24.1262 21.5105 24.2738 20.6352 24.3125C19.6859 24.3547 19.4012 24.3652 17 24.3652C14.5953 24.3652 14.3105 24.3547 13.3648 24.3125C12.4859 24.2738 12.0113 24.1262 11.6949 24.0031C11.2766 23.8414 10.9742 23.6445 10.6613 23.3316C10.3449 23.0152 10.1516 22.7164 9.98984 22.298C9.8668 21.9816 9.71914 21.5035 9.68047 20.6281C9.63828 19.6789 9.62773 19.3941 9.62773 16.993C9.62773 14.5883 9.63828 14.3035 9.68047 13.3578C9.71914 12.4789 9.8668 12.0043 9.98984 11.6879C10.1516 11.2695 10.3484 10.9672 10.6613 10.6543C10.9777 10.3379 11.2766 10.1445 11.6949 9.98281C12.0113 9.85977 12.4895 9.71211 13.3648 9.67344C14.3105 9.63125 14.5953 9.6207 17 9.6207ZM17 8C14.5566 8 14.2508 8.01055 13.291 8.05273C12.3348 8.09492 11.6773 8.24961 11.1078 8.47109C10.5137 8.70312 10.0109 9.00898 9.51172 9.51172C9.00898 10.0109 8.70313 10.5137 8.47109 11.1043C8.24961 11.6773 8.09492 12.3312 8.05273 13.2875C8.01055 14.2508 8 14.5566 8 17C8 19.4434 8.01055 19.7492 8.05273 20.709C8.09492 21.6652 8.24961 22.3227 8.47109 22.8922C8.70313 23.4863 9.00898 23.9891 9.51172 24.4883C10.0109 24.9875 10.5137 25.2969 11.1043 25.5254C11.6773 25.7469 12.3313 25.9016 13.2875 25.9437C14.2473 25.9859 14.5531 25.9965 16.9965 25.9965C19.4398 25.9965 19.7457 25.9859 20.7055 25.9437C21.6617 25.9016 22.3191 25.7469 22.8887 25.5254C23.4793 25.2969 23.982 24.9875 24.4813 24.4883C24.9805 23.9891 25.2898 23.4863 25.5184 22.8957C25.7398 22.3227 25.8945 21.6687 25.9367 20.7125C25.9789 19.7527 25.9895 19.4469 25.9895 17.0035C25.9895 14.5602 25.9789 14.2543 25.9367 13.2945C25.8945 12.3383 25.7398 11.6809 25.5184 11.1113C25.2969 10.5137 24.991 10.0109 24.4883 9.51172C23.9891 9.0125 23.4863 8.70312 22.8957 8.47461C22.3227 8.25312 21.6688 8.09844 20.7125 8.05625C19.7492 8.01055 19.4434 8 17 8Z" fill="hsl(300, 69%, 71%)"/>
<path d="M17 12.377C14.4477 12.377 12.377 14.4477 12.377 17C12.377 19.5523 14.4477 21.623 17 21.623C19.5523 21.623 21.623 19.5523 21.623 17C21.623 14.4477 19.5523 12.377 17 12.377ZM17 19.9988C15.3441 19.9988 14.0012 18.6559 14.0012 17C14.0012 15.3441 15.3441 14.0012 17 14.0012C18.6559 14.0012 19.9988 15.3441 19.9988 17C19.9988 18.6559 18.6559 19.9988 17 19.9988Z" fill="hsl(300, 69%, 71%)"/>
<path d="M22.8852 12.1942C22.8852 12.7918 22.4 13.2735 21.8059 13.2735C21.2082 13.2735 20.7266 12.7883 20.7266 12.1942C20.7266 11.5965 21.2117 11.1149 21.8059 11.1149C22.4 11.1149 22.8852 11.6 22.8852 12.1942Z" fill="hsl(300, 69%, 71%)"/>
</g>
<defs>
<clipPath id="clip0_1_55">
<rect width="18" height="18" fill="hsl(300, 69%, 71%)" transform="translate(8 8)"/>
</clipPath>
</defs>
</svg>
